<svg width="1461" height="155" viewBox="0 0 1461 155" fill="none" xmlns="http://www.w3.org/2000/svg">
<path d="M71.4318 51.1818C71.2614 49.7424 70.5701 48.625 69.358 47.8295C68.1458 47.0341 66.6591 46.6364 64.8977 46.6364C63.6098 46.6364 62.483 46.8447 61.517 47.2614C60.5606 47.678 59.8125 48.2509 59.2727 48.9801C58.7424 49.7093 58.4773 50.5379 58.4773 51.4659C58.4773 52.2424 58.6619 52.91 59.0312 53.4688C59.41 54.018 59.893 54.4773 60.4801 54.8466C61.0672 55.2064 61.6828 55.5047 62.3267 55.7415C62.9706 55.9687 63.5625 56.1534 64.1023 56.2955L67.0568 57.0909C67.8144 57.2898 68.6572 57.5644 69.5852 57.9148C70.5227 58.2652 71.4176 58.7434 72.2699 59.3494C73.1316 59.946 73.8419 60.7131 74.4006 61.6506C74.9593 62.5881 75.2386 63.7386 75.2386 65.1023C75.2386 66.6742 74.8267 68.0947 74.0028 69.3636C73.1884 70.6326 71.9953 71.6411 70.4233 72.3892C68.8608 73.1373 66.9621 73.5114 64.7273 73.5114C62.6439 73.5114 60.84 73.1752 59.3153 72.5028C57.8002 71.8305 56.607 70.893 55.7358 69.6903C54.8741 68.4877 54.3864 67.0909 54.2727 65.5H57.9091C58.0038 66.5985 58.3731 67.5076 59.017 68.2273C59.6705 68.9375 60.4943 69.4678 61.4886 69.8182C62.4924 70.1591 63.572 70.3295 64.7273 70.3295C66.072 70.3295 67.2794 70.1117 68.3494 69.6761C69.4195 69.2311 70.267 68.6155 70.892 67.8295C71.517 67.0341 71.8295 66.1061 71.8295 65.0455C71.8295 64.0795 71.5597 63.2936 71.0199 62.6875C70.4801 62.0814 69.7699 61.589 68.8892 61.2102C68.0085 60.8314 67.0568 60.5 66.0341 60.2159L62.4545 59.1932C60.1818 58.5398 58.3826 57.607 57.0568 56.3949C55.7311 55.1828 55.0682 53.5966 55.0682 51.6364C55.0682 50.0076 55.5085 48.5871 56.3892 47.375C57.2794 46.1534 58.4725 45.2064 59.9688 44.5341C61.4744 43.8523 63.1553 43.5114 65.0114 43.5114C66.8864 43.5114 68.553 43.8475 70.0114 44.5199C71.4697 45.1828 72.625 46.0919 73.4773 47.2472C74.339 48.4025 74.7936 49.714 74.8409 51.1818H71.4318ZM92.2805 73V43.9091H109.837V47.0341H95.8033V56.8636H108.928V59.9886H95.8033V69.875H110.065V73H92.2805ZM127.437 73V43.9091H137.266C139.539 43.9091 141.405 44.2973 142.863 45.0739C144.321 45.8409 145.401 46.8968 146.102 48.2415C146.802 49.5862 147.153 51.1155 147.153 52.8295C147.153 54.5436 146.802 56.0634 146.102 57.3892C145.401 58.715 144.326 59.7566 142.877 60.5142C141.428 61.2623 139.577 61.6364 137.323 61.6364H129.369V58.4545H137.21C138.763 58.4545 140.013 58.2273 140.96 57.7727C141.916 57.3182 142.607 56.6742 143.033 55.8409C143.469 54.9981 143.687 53.9943 143.687 52.8295C143.687 51.6648 143.469 50.6468 143.033 49.7756C142.598 48.9044 141.902 48.232 140.945 47.7585C139.989 47.2756 138.725 47.0341 137.153 47.0341H130.96V73H127.437ZM141.13 59.9318L148.289 73H144.198L137.153 59.9318H141.13ZM167.795 43.9091V73H164.273V43.9091H167.795ZM186.109 73V43.9091H203.665V47.0341H189.631V56.8636H202.756V59.9886H189.631V69.875H203.893V73H186.109ZM237.174 51.1818C237.004 49.7424 236.312 48.625 235.1 47.8295C233.888 47.0341 232.401 46.6364 230.64 46.6364C229.352 46.6364 228.225 46.8447 227.259 47.2614C226.303 47.678 225.555 48.2509 225.015 48.9801C224.485 49.7093 224.219 50.5379 224.219 51.4659C224.219 52.2424 224.404 52.91 224.773 53.4688C225.152 54.018 225.635 54.4773 226.222 54.8466C226.809 55.2064 227.425 55.5047 228.069 55.7415C228.713 55.9687 229.305 56.1534 229.844 56.2955L232.799 57.0909C233.557 57.2898 234.399 57.5644 235.327 57.9148C236.265 58.2652 237.16 58.7434 238.012 59.3494C238.874 59.946 239.584 60.7131 240.143 61.6506C240.701 62.5881 240.981 63.7386 240.981 65.1023C240.981 66.6742 240.569 68.0947 239.745 69.3636C238.931 70.6326 237.737 71.6411 236.165 72.3892C234.603 73.1373 232.704 73.5114 230.469 73.5114C228.386 73.5114 226.582 73.1752 225.058 72.5028C223.542 71.8305 222.349 70.893 221.478 69.6903C220.616 68.4877 220.129 67.0909 220.015 65.5H223.651C223.746 66.5985 224.115 67.5076 224.759 68.2273C225.413 68.9375 226.237 69.4678 227.231 69.8182C228.235 70.1591 229.314 70.3295 230.469 70.3295C231.814 70.3295 233.022 70.1117 234.092 69.6761C235.162 69.2311 236.009 68.6155 236.634 67.8295C237.259 67.0341 237.572 66.1061 237.572 65.0455C237.572 64.0795 237.302 63.2936 236.762 62.6875C236.222 62.0814 235.512 61.589 234.631 61.2102C233.751 60.8314 232.799 60.5 231.776 60.2159L228.197 59.1932C225.924 58.5398 224.125 57.607 222.799 56.3949C221.473 55.1828 220.81 53.5966 220.81 51.6364C220.81 50.0076 221.251 48.5871 222.131 47.375C223.022 46.1534 224.215 45.2064 225.711 44.5341C227.217 43.8523 228.897 43.5114 230.754 43.5114C232.629 43.5114 234.295 43.8475 235.754 44.5199C237.212 45.1828 238.367 46.0919 239.219 47.2472C240.081 48.4025 240.536 49.714 240.583 51.1818H237.174Z" fill="white"/>
<mask id="path-2-outside-1_16_2" maskUnits="userSpaceOnUse" x="2" y="17" width="37" height="70" fill="black">
<rect fill="white" x="2" y="17" width="37" height="70"/>
<path d="M3.936 18.8H19.584C25.024 18.8 28.992 20.08 31.488 22.64C33.984 25.136 35.232 29.008 35.232 34.256V38.384C35.232 45.36 32.928 49.776 28.32 51.632V51.824C30.88 52.592 32.672 54.16 33.696 56.528C34.784 58.896 35.328 62.064 35.328 66.032V77.84C35.328 79.76 35.392 81.328 35.52 82.544C35.648 83.696 35.968 84.848 36.48 86H25.728C25.344 84.912 25.088 83.888 24.96 82.928C24.832 81.968 24.768 80.24 24.768 77.744V65.456C24.768 62.384 24.256 60.24 23.232 59.024C22.272 57.808 20.576 57.2 18.144 57.2H14.496V86H3.936V18.8ZM18.336 47.6C20.448 47.6 22.016 47.056 23.04 45.968C24.128 44.88 24.672 43.056 24.672 40.496V35.312C24.672 32.88 24.224 31.12 23.328 30.032C22.496 28.944 21.152 28.4 19.296 28.4H14.496V47.6H18.336Z"/>
</mask>
<g filter="url(#filter0_i_16_2)">
<path d="M3.936 18.8H19.584C25.024 18.8 28.992 20.08 31.488 22.64C33.984 25.136 35.232 29.008 35.232 34.256V38.384C35.232 45.36 32.928 49.776 28.32 51.632V51.824C30.88 52.592 32.672 54.16 33.696 56.528C34.784 58.896 35.328 62.064 35.328 66.032V77.84C35.328 79.76 35.392 81.328 35.52 82.544C35.648 83.696 35.968 84.848 36.48 86H25.728C25.344 84.912 25.088 83.888 24.96 82.928C24.832 81.968 24.768 80.24 24.768 77.744V65.456C24.768 62.384 24.256 60.24 23.232 59.024C22.272 57.808 20.576 57.2 18.144 57.2H14.496V86H3.936V18.8ZM18.336 47.6C20.448 47.6 22.016 47.056 23.04 45.968C24.128 44.88 24.672 43.056 24.672 40.496V35.312C24.672 32.88 24.224 31.12 23.328 30.032C22.496 28.944 21.152 28.4 19.296 28.4H14.496V47.6H18.336Z" fill="#DB0505"/>
</g>
<path d="M3.936 18.8V17.8H2.936V18.8H3.936ZM31.488 22.64L30.7719 23.3382L30.7809 23.3471L31.488 22.64ZM28.32 51.632L27.9464 50.7044L27.32 50.9567V51.632H28.32ZM28.32 51.824H27.32V52.568L28.0327 52.7818L28.32 51.824ZM33.696 56.528L32.7781 56.9249L32.7826 56.9353L32.7873 56.9455L33.696 56.528ZM35.52 82.544L34.5255 82.6487L34.5261 82.6544L35.52 82.544ZM36.48 86V87H38.0188L37.3938 85.5939L36.48 86ZM25.728 86L24.785 86.3328L25.0205 87H25.728V86ZM23.232 59.024L22.4471 59.6436L22.4569 59.656L22.4671 59.6681L23.232 59.024ZM14.496 57.2V56.2H13.496V57.2H14.496ZM14.496 86V87H15.496V86H14.496ZM3.936 86H2.936V87H3.936V86ZM23.04 45.968L22.3329 45.2609L22.3222 45.2716L22.3118 45.2826L23.04 45.968ZM23.328 30.032L22.5336 30.6395L22.5446 30.6538L22.5561 30.6677L23.328 30.032ZM14.496 28.4V27.4H13.496V28.4H14.496ZM14.496 47.6H13.496V48.6H14.496V47.6ZM3.936 19.8H19.584V17.8H3.936V19.8ZM19.584 19.8C24.8931 19.8 28.5429 21.0519 30.772 23.3381L32.204 21.9419C29.4411 19.1081 25.1549 17.8 19.584 17.8V19.8ZM30.7809 23.3471C33.0149 25.5812 34.232 29.1452 34.232 34.256H36.232C36.232 28.8708 34.9531 24.6908 32.1951 21.9329L30.7809 23.3471ZM34.232 34.256V38.384H36.232V34.256H34.232ZM34.232 38.384C34.232 41.7717 33.6711 44.4458 32.6174 46.4654C31.5753 48.4629 30.0288 49.8657 27.9464 50.7044L28.6936 52.5596C31.2192 51.5423 33.1287 49.8091 34.3906 47.3906C35.6409 44.9942 36.232 41.9723 36.232 38.384H34.232ZM27.32 51.632V51.824H29.32V51.632H27.32ZM28.0327 52.7818C30.3217 53.4685 31.876 54.8387 32.7781 56.9249L34.6139 56.1311C33.468 53.4812 31.4383 51.7155 28.6073 50.8662L28.0327 52.7818ZM32.7873 56.9455C33.792 59.1322 34.328 62.1399 34.328 66.032H36.328C36.328 61.9881 35.776 58.6598 34.6047 56.1105L32.7873 56.9455ZM34.328 66.032V77.84H36.328V66.032H34.328ZM34.328 77.84C34.328 79.7777 34.3924 81.3842 34.5255 82.6487L36.5145 82.4393C36.3916 81.2718 36.328 79.7423 36.328 77.84H34.328ZM34.5261 82.6544C34.6664 83.9171 35.0161 85.1685 35.5662 86.4061L37.3938 85.5939C36.9199 84.5275 36.6296 83.4749 36.5139 82.4336L34.5261 82.6544ZM36.48 85H25.728V87H36.48V85ZM26.671 85.6672C26.3057 84.6323 26.0686 83.676 25.9512 82.7958L23.9688 83.0602C24.1074 84.1 24.3823 85.1917 24.785 86.3328L26.671 85.6672ZM25.9512 82.7958C25.8331 81.9099 25.768 80.2435 25.768 77.744H23.768C23.768 80.2365 23.8309 82.0261 23.9688 83.0602L25.9512 82.7958ZM25.768 77.744V65.456H23.768V77.744H25.768ZM25.768 65.456C25.768 62.3378 25.2614 59.8815 23.9969 58.3799L22.4671 59.6681C23.2506 60.5985 23.768 62.4302 23.768 65.456H25.768ZM24.0169 58.4044C22.78 56.8376 20.7063 56.2 18.144 56.2V58.2C20.4457 58.2 21.764 58.7784 22.4471 59.6436L24.0169 58.4044ZM18.144 56.2H14.496V58.2H18.144V56.2ZM13.496 57.2V86H15.496V57.2H13.496ZM14.496 85H3.936V87H14.496V85ZM4.936 86V18.8H2.936V86H4.936ZM18.336 48.6C20.6073 48.6 22.488 48.0136 23.7682 46.6534L22.3118 45.2826C21.544 46.0984 20.2887 46.6 18.336 46.6V48.6ZM23.7471 46.6751C25.1144 45.3078 25.672 43.1546 25.672 40.496H23.672C23.672 42.9574 23.1416 44.4522 22.3329 45.2609L23.7471 46.6751ZM25.672 40.496V35.312H23.672V40.496H25.672ZM25.672 35.312C25.672 32.8006 25.2176 30.7535 24.0999 29.3963L22.5561 30.6677C23.2304 31.4865 23.672 32.9594 23.672 35.312H25.672ZM24.1224 29.4245C23.0391 28.008 21.3446 27.4 19.296 27.4V29.4C20.9594 29.4 21.9529 29.88 22.5336 30.6395L24.1224 29.4245ZM19.296 27.4H14.496V29.4H19.296V27.4ZM13.496 28.4V47.6H15.496V28.4H13.496ZM14.496 48.6H18.336V46.6H14.496V48.6Z" fill="black" mask="url(#path-2-outside-1_16_2)"/>
<defs>
<filter id="filter0_i_16_2" x="3.93604" y="18.8" width="32.5439" height="71.2" filterUnits="userSpaceOnUse" color-interpolation-filters="sRGB">
<feFlood flood-opacity="0" result="BackgroundImageFix"/>
<feBlend mode="normal" in="SourceGraphic" in2="BackgroundImageFix" result="shape"/>
<feColorMatrix in="SourceAlpha" type="matrix" values="0 0 0 0 0 0 0 0 0 0 0 0 0 0 0 0 0 0 127 0" result="hardAlpha"/>
<feOffset dy="4"/>
<feGaussianBlur stdDeviation="2"/>
<feComposite in2="hardAlpha" operator="arithmetic" k2="-1" k3="1"/>
<feColorMatrix type="matrix" values="0 0 0 0 0 0 0 0 0 0 0 0 0 0 0 0 0 0 0.25 0"/>
<feBlend mode="normal" in2="shape" result="effect1_innerShadow_16_2"/>
</filter>
</defs>
</svg>
